<?xml version="1.0" encoding="utf-8"?>
<!-- Generator: Adobe Illustrator 25.2.1, SVG Export Plug-In . SVG Version: 6.00 Build 0)  -->
<svg version="1.1" id="Layer_2_1_" xmlns="http://www.w3.org/2000/svg" xmlns:xlink="http://www.w3.org/1999/xlink" x="0px" y="0px"
	 viewBox="0 0 537 426" style="enable-background:new 0 0 537 426;" xml:space="preserve">
<style type="text/css">
	.st0{fill:#FFFFFF;}
</style>
<path class="st0" d="M273.6,16.6C250,8.5,225.9,4.3,200.9,6.7c-28.3,2.8-53.3,13.7-76.1,29.8c-36,25.5-61.6,59.8-83.7,96.9
	c-6.1,10.1-9.3,21.8-14.6,32.3c-1.8,3.8-3.8,7.5-5.1,11.5c-4.2,11.7-7.2,23.7-9.8,35.7C7,233,5.8,253.4,8.3,274
	c4.3,34.1,19.4,63.3,42.3,88.7c16.2,17.9,34.8,33.1,54.4,47c1.9,1.3,3.7,2.6,4.9,4.7c1.9,3.2,4.7,4.3,8.3,3.5c1.9-0.4,3.4-1.4,5-2.3
	c27.9-16.5,56.7-31,87-42.6c42.2-16.3,85.6-28.4,129.8-38c6.9-1.5,13.8-3,20.7-4c2.5-0.4,4.1-1.1,5.1-3.2c2.3-4.9,5.3-9.4,8-13.9
	c20.6-33.4,48.6-58.6,84.8-74.4c19.7-8.6,40.4-13.4,62.2-12.2c1.8,0.1,3.5-0.1,5.2-0.4c1-0.3,1.8-0.6,2.5-1.3
	c3.7-4.4,3.9-6.4,0.6-11.2c-0.7-1-1.4-2-2.2-2.9c-10.3-13.7-21.5-26.7-33.4-39.2c-46.6-49.1-99.2-90.9-147.6-120.4
	C316.4,34.6,295.6,24.2,273.6,16.6z M336.9,63.2c38.1,23,75.3,52,109.8,84.5c20.4,19.3,39.6,39.7,56.7,62c0.9,1.1,2.4,2.1,1.9,3.5
	c-0.5,1.5-2.4,1.2-3.7,1.2c-32.2,3.5-60.4,16.3-85.7,35.8c-18,14-33.9,30-46.7,48.9c-2.9,4.2-5,8.7-7.3,13.3c-1.9,4-5,7.2-9.8,8
	c-48.3,8.5-95.6,21.1-141.6,38.1C180,369.7,151,383.6,123,400c-7,4.1-5.5,4.2-12.2-0.6c-18-13-35-27.2-49.9-43.8
	c-34.1-38.2-47.3-82.3-39.7-132.5c2.4-15.5,6.3-30.5,12.7-45c5-11.2,9.5-22.6,15-33.6c20.2-40,48.3-73,85.9-97.6
	c22.7-14.9,47.6-23.3,75.1-24.4c20.1-0.8,39.5,2.5,58.7,8.6C291.9,38.5,313.5,49.3,336.9,63.2z"/>
</svg>
