<?xml version="1.0" encoding="utf-8"?>
<!-- Generator: Adobe Illustrator 25.2.1, SVG Export Plug-In . SVG Version: 6.00 Build 0)  -->
<svg version="1.1" id="Layer_1" xmlns="http://www.w3.org/2000/svg" xmlns:xlink="http://www.w3.org/1999/xlink" x="0px" y="0px"
	 viewBox="0 0 199.6 199" style="enable-background:new 0 0 199.6 199;" xml:space="preserve">
<style type="text/css">
	.st0{fill:#FFFFFF;}
</style>
<g>
	<path class="st0" d="M-133.2-120.5c164.1,0,328.2,0,492.3,0c0,159.4,0,318.9,0,478.3c-164.1,0-328.2,0-492.3,0
		C-133.2,198.4-133.2,38.9-133.2-120.5z M111.3,201.1c18.2,0,33.6-4.8,47.5-14.1c3.7-2.4,7.2-5.2,10.4-8.2c3.9-3.7,7.4-7.8,10.8-12
		c4.4-5.3,7.7-11.4,10.3-17.7c9.2-22.4,9.6-44.8-1-67c-2.9-6-6.2-11.6-10.7-16.5c-3.4-3.7-6.8-7.4-10.8-10.6
		c-6.5-5.2-13.6-9.4-21.3-12.5c-6.8-2.8-13.7-4.6-20.9-5.7c-14.4-2.1-28.5-0.7-42.3,4.2c-7.7,2.7-14.9,6.6-21.4,11.6
		c-4,3-7.8,6.4-11.2,10.1c-3.5,3.8-6.7,8-9.6,12.3c-5.2,7.8-8.5,16.6-10.6,25.6c-2.9,12.5-2.8,25.1,0.8,37.5
		c2.5,8.8,5.7,17.3,11.1,24.8c3.2,4.6,6.3,9.3,10.6,13c3.5,3.1,7.1,6.3,10.8,9.2c6.4,4.9,13.6,8.4,21.2,11.1
		C94,199.4,103.2,201,111.3,201.1z"/>
	<path d="M189.3,84.2c-2.9-6-6.2-11.6-10.7-16.5c-3.4-3.7-6.8-7.4-10.8-10.6c-6.5-5.2-13.6-9.4-21.3-12.5
		c-6.8-2.8-13.7-4.6-20.9-5.7c-14.4-2.1-28.5-0.7-42.3,4.2c-7.7,2.7-14.9,6.6-21.4,11.6c-4,3-7.8,6.4-11.2,10.1
		c-3.5,3.8-6.7,8-9.6,12.3c-5.2,7.8-8.5,16.6-10.6,25.6c-2.9,12.5-2.8,25.1,0.8,37.5c2.5,8.8,5.7,17.3,11.1,24.8
		c3.2,4.6,6.3,9.3,10.6,13c3.5,3.1,7.1,6.3,10.8,9.2c6.4,4.9,13.6,8.4,21.2,11.1c9,3.2,18.2,4.8,26.4,4.8c18.2,0,33.6-4.8,47.5-14.1
		c3.7-2.4,7.2-5.2,10.4-8.2c3.9-3.7,7.4-7.8,10.8-12c4.4-5.3,7.7-11.4,10.3-17.7C199.5,128.8,200,106.4,189.3,84.2z M190.1,123.9
		c-1.3,11.6-4.2,22.8-10.4,32.9c-2.8,4.6-6,9.1-9.6,13.2c-3.4,3.9-7.4,7.4-11.4,10.6c-6.1,4.8-12.9,8.5-20.3,11.1
		c-8.6,3.1-17.4,4.7-29.5,4.5c-6.3-0.1-15.3-1.8-23.9-5.1c-7.8-3-14.9-7.2-21.4-12.4c-4-3.3-7.4-7-10.8-10.9
		c-4.6-5.3-7.9-11.4-10.8-17.7c-8.4-18.9-8.5-38.1-1.1-57.3c2.5-6.6,6-13,10.6-18.5c3.2-3.8,6.7-7.6,10.4-10.9
		c6.3-5.6,13.5-10,21.4-13.1c14.5-5.7,29.5-7.1,44.9-4.3c6.3,1.2,12.3,3.1,18.2,5.7c7.9,3.6,15,8.3,21.4,14.3
		c4.1,3.9,7.5,8.3,10.7,13c6.4,9.3,9.5,19.7,11.1,30.7C190.3,114.5,190.6,119.2,190.1,123.9z"/>
	<path class="st0" d="M108.9,196.5c-6.3-0.1-15.3-1.8-23.9-5.1c-7.8-3-14.9-7.2-21.4-12.4c-4-3.3-7.4-7-10.8-10.9
		c-4.6-5.3-7.9-11.4-10.8-17.7c-8.4-18.9-8.5-38.1-1.1-57.3c2.5-6.6,6-13,10.6-18.5c3.2-3.8,6.7-7.6,10.4-10.9
		c6.3-5.6,13.5-10,21.4-13.1c14.5-5.7,29.5-7.1,44.9-4.3c6.3,1.2,12.3,3.1,18.2,5.7c7.9,3.6,15,8.3,21.4,14.3
		c4.1,3.9,7.5,8.3,10.7,13c6.4,9.3,9.5,19.7,11.1,30.7c0.7,4.7,1,9.4,0.5,14.1c-1.3,11.6-4.2,22.8-10.4,32.9
		c-2.8,4.6-6,9.1-9.6,13.2c-3.4,3.9-7.4,7.4-11.4,10.6c-6.1,4.8-12.9,8.5-20.3,11.1C129.8,195,120.9,196.6,108.9,196.5z"/>
</g>
</svg>
