<?xml version="1.0" encoding="utf-8"?>
<!-- Generator: Adobe Illustrator 25.2.1, SVG Export Plug-In . SVG Version: 6.00 Build 0)  -->
<svg version="1.1" id="Layer_2_1_" xmlns="http://www.w3.org/2000/svg" xmlns:xlink="http://www.w3.org/1999/xlink" x="0px" y="0px"
	 viewBox="0 0 386 507" style="enable-background:new 0 0 386 507;" xml:space="preserve">
<style type="text/css">
	.st0{fill:#FFFFFF;}
</style>
<path class="st0" d="M321.5,380.1c18.8-16.4,34.5-35.2,44.9-58c11.7-25.9,14.8-53,12.2-80.8c-4.1-43.8-21-83.1-42.1-120.9
	c-5.7-10.3-14.2-19-20.7-28.8c-2.4-3.5-4.6-7-7.4-10.2c-8-9.5-16.9-18.1-26-26.4c-15.2-14-32.3-25.3-51.4-33.4
	c-31.7-13.3-64.5-14.9-98-7.7c-23.6,5.1-46.1,13.6-67.9,23.6c-2.1,1-4.1,1.9-6.5,1.9c-3.7,0-6.1,1.9-7.2,5.4
	c-0.6,1.8-0.5,3.7-0.5,5.5c0.3,32.4-1.5,64.6-6.6,96.6c-7,44.7-18.2,88.3-32,131.4c-2.2,6.7-4.3,13.4-6.9,19.9
	c-0.9,2.4-1.1,4.1,0.2,6c3.1,4.4,5.5,9.3,8.1,13.9c18.6,34.5,26.4,71.4,22,110.6c-2.4,21.4-8.6,41.7-20.5,60c-1,1.5-1.7,3.1-2.3,4.7
	c-0.3,1-0.4,1.9-0.1,2.8c2,5.4,3.6,6.6,9.4,6.1c1.2-0.1,2.4-0.2,3.6-0.4c17-2.1,33.9-5.3,50.7-9.3c65.8-15.8,128.3-40.4,178.1-67.6
	C284.5,408.1,303.9,395.3,321.5,380.1z M249.4,411.6c-39,21.5-82.7,39.2-128.1,52.8c-26.9,8-54.2,14.4-82,18.1c-1.4,0.2-3,1-4-0.1
	c-1.1-1.2,0.2-2.7,0.8-3.8C49.2,449,52.3,418.2,48,386.5c-3.1-22.6-9-44.4-19-64.9c-2.2-4.6-5.1-8.7-7.9-13c-2.5-3.7-3.7-7.9-2-12.5
	C35.9,250,48.6,202.8,57,154.4c5.6-32,8-64.1,7.8-96.5c0-8.1-0.9-6.9,6.6-10.2c20.3-9.1,41.1-16.7,62.9-21.3
	c50.1-10.4,94.9,0.2,134.6,31.9C281,68,292,79,301.3,91.7c7.2,9.9,14.8,19.5,21.6,29.8c24.5,37.5,39.1,78.3,41.6,123.2
	c1.5,27.1-3.6,52.9-16.4,77.2c-9.4,17.8-21.9,33-36.8,46.5C293.4,385,273.2,398.3,249.4,411.6z"/>
</svg>
