<?xml version="1.0" encoding="utf-8"?>
<!-- Generator: Adobe Illustrator 25.2.1, SVG Export Plug-In . SVG Version: 6.00 Build 0)  -->
<svg version="1.1" id="Layer_2_1_" xmlns="http://www.w3.org/2000/svg" xmlns:xlink="http://www.w3.org/1999/xlink" x="0px" y="0px"
	 viewBox="0 0 445 486" style="enable-background:new 0 0 445 486;" xml:space="preserve">
<style type="text/css">
	.st0{fill:#010101;}
</style>
<path class="st0" d="M13,334.4c4.8,24.5,13.2,47.5,27.8,67.9c16.6,23.1,38.5,39.3,63.9,51c40,18.4,82.5,23.4,125.7,24
	c11.8,0.2,23.5-2.8,35.3-3.5c4.2-0.3,8.4-0.5,12.5-1.3c12.2-2.2,24.1-5.6,35.8-9.3c19.7-6.2,38-15.3,54.6-27.8
	c27.4-20.8,45.1-48.4,55.7-81c7.4-23,11.3-46.7,13.5-70.6c0.2-2.3,0.4-4.5,1.6-6.6c1.8-3.2,1.4-6.2-1.1-8.9
	c-1.3-1.4-2.9-2.3-4.5-3.2c-28.2-15.9-55.2-33.6-80.4-54c-35.2-28.4-67.4-59.9-97.8-93.4c-4.7-5.2-9.5-10.4-13.8-15.9
	c-1.6-2-3-3-5.3-2.8c-5.4,0.5-10.8,0.1-16.1,0c-39.2-1.1-75-12.8-106.8-36.2C96.3,50,81.8,34.5,71.9,15c-0.8-1.6-1.8-3-2.9-4.3
	c-0.7-0.7-1.4-1.3-2.4-1.5c-5.7-1-7.5-0.2-10,5.1c-0.5,1.1-1,2.2-1.4,3.3c-6.7,15.8-12.4,32-17.3,48.5C18.7,131,8.8,197.4,7.4,254.1
	C7.2,288.3,8.6,311.5,13,334.4z M21.7,256.2c0.9-44.5,7.4-91.2,18.3-137.3c6.5-27.3,14.6-54.1,25.3-80.1c0.5-1.3,0.6-3.1,2.1-3.4
	c1.6-0.3,2.2,1.5,2.9,2.6c19.1,26.1,44.3,44.2,73.9,56.3c21.1,8.6,42.9,14.4,65.7,16c5.1,0.4,10.1,0,15.2-0.3
	c4.4-0.3,8.7,0.7,11.8,4.5c31.5,37.6,66.1,72.2,103.8,103.6c24.9,20.8,51.5,39,79.7,55c7,4,6.4,2.7,5.6,10.8
	c-2.3,22.1-6.1,43.9-13,65.1c-16,48.6-47.6,82.1-94.9,100.6c-14.6,5.7-29.6,9.8-45.3,11.5c-12.2,1.3-24.3,3.1-36.6,3.8
	c-44.7,2.5-87.4-5.3-127.5-25.6c-24.2-12.2-44-29.6-58.7-52.8c-10.7-17-17.6-35.5-21.9-55.1C22.8,307.6,21.4,283.4,21.7,256.2z"/>
</svg>
