<?xml version="1.0" encoding="UTF-8" standalone="no"?>
<svg
   xmlns:dc="http://purl.org/dc/elements/1.1/"
   xmlns:cc="http://creativecommons.org/ns#"
   xmlns:rdf="http://www.w3.org/1999/02/22-rdf-syntax-ns#"
   xmlns:svg="http://www.w3.org/2000/svg"
   xmlns="http://www.w3.org/2000/svg"
   xmlns:sodipodi="http://sodipodi.sourceforge.net/DTD/sodipodi-0.dtd"
   xmlns:inkscape="http://www.inkscape.org/namespaces/inkscape"
   version="1.1"
   id="svg869"
   width="575.35999"
   height="577.59998"
   viewBox="0 0 575.35999 577.59998"
   sodipodi:docname="flower-transparent.svg"
   inkscape:version="1.0.2 (e86c8708, 2021-01-15)">
  <metadata
     id="metadata875">
    <rdf:RDF>
      <cc:Work
         rdf:about="">
        <dc:format>image/svg+xml</dc:format>
        <dc:type
           rdf:resource="http://purl.org/dc/dcmitype/StillImage" />
        <dc:title></dc:title>
      </cc:Work>
    </rdf:RDF>
  </metadata>
  <defs
     id="defs873" />
  <sodipodi:namedview
     pagecolor="#ffffff"
     bordercolor="#666666"
     borderopacity="1"
     objecttolerance="10"
     gridtolerance="10"
     guidetolerance="10"
     inkscape:pageopacity="0"
     inkscape:pageshadow="2"
     inkscape:window-width="1920"
     inkscape:window-height="1080"
     id="namedview871"
     showgrid="false"
     inkscape:zoom="0.74985472"
     inkscape:cx="52.93304"
     inkscape:cy="133.7183"
     inkscape:window-x="0"
     inkscape:window-y="0"
     inkscape:window-maximized="0"
     inkscape:current-layer="g877" />
  <g
     inkscape:groupmode="layer"
     inkscape:label="Image"
     id="g877">
    <path
       style="color:#000000;font-style:normal;font-variant:normal;font-weight:normal;font-stretch:normal;font-size:medium;line-height:normal;font-family:sans-serif;font-variant-ligatures:normal;font-variant-position:normal;font-variant-caps:normal;font-variant-numeric:normal;font-variant-alternates:normal;font-variant-east-asian:normal;font-feature-settings:normal;font-variation-settings:normal;text-indent:0;text-align:start;text-decoration:none;text-decoration-line:none;text-decoration-style:solid;text-decoration-color:#000000;letter-spacing:normal;word-spacing:normal;text-transform:none;writing-mode:lr-tb;direction:ltr;text-orientation:mixed;dominant-baseline:auto;baseline-shift:baseline;text-anchor:start;white-space:normal;shape-padding:0;shape-margin:0;inline-size:0;clip-rule:nonzero;display:inline;overflow:visible;visibility:visible;isolation:auto;mix-blend-mode:normal;color-interpolation:sRGB;color-interpolation-filters:linearRGB;solid-color:#000000;solid-opacity:1;vector-effect:none;fill:#000000;fill-opacity:0;fill-rule:nonzero;stroke:none;stroke-width:10.9432;stroke-linecap:butt;stroke-linejoin:miter;stroke-miterlimit:4;stroke-dasharray:none;stroke-dashoffset:0;stroke-opacity:1;color-rendering:auto;image-rendering:auto;shape-rendering:auto;text-rendering:auto;enable-background:accumulate;stop-color:#000000"
       d="m 384.13664,78.055807 c 0,34.457753 -42.74698,62.391293 -95.47806,62.391293 -52.73108,0 -95.47807,-27.93354 -95.47807,-62.391293 0,-34.457761 42.74699,-62.391295 95.47807,-62.391295 52.73108,0 95.47806,27.933534 95.47806,62.391295 z"
       id="path897" />
    <path
       style="color:#000000;font-style:normal;font-variant:normal;font-weight:normal;font-stretch:normal;font-size:medium;line-height:normal;font-family:sans-serif;font-variant-ligatures:normal;font-variant-position:normal;font-variant-caps:normal;font-variant-numeric:normal;font-variant-alternates:normal;font-variant-east-asian:normal;font-feature-settings:normal;font-variation-settings:normal;text-indent:0;text-align:start;text-decoration:none;text-decoration-line:none;text-decoration-style:solid;text-decoration-color:#000000;letter-spacing:normal;word-spacing:normal;text-transform:none;writing-mode:lr-tb;direction:ltr;text-orientation:mixed;dominant-baseline:auto;baseline-shift:baseline;text-anchor:start;white-space:normal;shape-padding:0;shape-margin:0;inline-size:0;clip-rule:nonzero;display:inline;overflow:visible;visibility:visible;isolation:auto;mix-blend-mode:normal;color-interpolation:sRGB;color-interpolation-filters:linearRGB;solid-color:#000000;solid-opacity:1;vector-effect:none;fill:#000000;fill-opacity:0;fill-rule:nonzero;stroke:none;stroke-width:10.2736;stroke-linecap:butt;stroke-linejoin:miter;stroke-miterlimit:4;stroke-dasharray:none;stroke-dashoffset:0;stroke-opacity:1;color-rendering:auto;image-rendering:auto;shape-rendering:auto;text-rendering:auto;enable-background:accumulate;stop-color:#000000"
       d="m 389.50343,101.65216 c 0,49.62938 -45.5137,89.86194 -101.65768,89.86194 -56.14399,0 -101.65768,-40.23256 -101.65768,-89.86194 0,-49.62938 45.51369,-89.861939 101.65768,-89.861939 56.14398,0 101.65768,40.232559 101.65768,89.861939 z"
       id="path906" />
    <g
       id="g956"
       transform="matrix(0.38948925,0,0,0.36853008,48.059691,49.059288)">
      <path
         style="color:#000000;font-style:normal;font-variant:normal;font-weight:normal;font-stretch:normal;font-size:medium;line-height:normal;font-family:sans-serif;font-variant-ligatures:normal;font-variant-position:normal;font-variant-caps:normal;font-variant-numeric:normal;font-variant-alternates:normal;font-variant-east-asian:normal;font-feature-settings:normal;font-variation-settings:normal;text-indent:0;text-align:start;text-decoration:none;text-decoration-line:none;text-decoration-style:solid;text-decoration-color:#000000;letter-spacing:normal;word-spacing:normal;text-transform:none;writing-mode:lr-tb;direction:ltr;text-orientation:mixed;dominant-baseline:auto;baseline-shift:baseline;text-anchor:start;white-space:normal;shape-padding:0;shape-margin:0;inline-size:0;clip-rule:nonzero;display:inline;overflow:visible;visibility:visible;isolation:auto;mix-blend-mode:normal;color-interpolation:sRGB;color-interpolation-filters:linearRGB;solid-color:#000000;solid-opacity:1;vector-effect:none;fill:#000000;fill-opacity:1;fill-rule:nonzero;stroke:none;stroke-width:0.994;stroke-linecap:butt;stroke-linejoin:miter;stroke-miterlimit:4;stroke-dasharray:none;stroke-dashoffset:0;stroke-opacity:1;color-rendering:auto;image-rendering:auto;shape-rendering:auto;text-rendering:auto;enable-background:accumulate;stop-color:#000000"
         d="m 281.49256,14.766963 c -59.07754,4.732812 -97.60988,38.789148 -97.46612,95.203537 8.67019,5.50827 18.08272,10.46337 25.2838,14.73628 10.94616,6.49504 19.45168,13.61286 31.61366,23.77892 22.99928,19.22473 34.08085,33.95212 43.98522,43.67934 17.92118,-0.31284 40.28066,1.52002 61.73205,15.63999 11.77407,7.75009 21.59288,17.53495 30.03299,27.48272 7.44975,-24.24299 13.03164,-46.13815 17.60231,-69.88007 3.74404,-28.29867 3.94255,-52.25349 2.46351,-66.960247 C 390.28159,34.22898 331.48482,10.761984 281.49256,14.766963 Z m 4.11803,8.709175 c 53.40031,-5.676287 98.97244,32.765767 102.07741,77.040822 1.81664,25.90322 -1.36569,59.95319 -5.88124,79.94562 0,0 -6.00961,31.43781 -9.23967,39.51844 0,0 -5.16379,-4.99065 -17.6049,-14.69255 -13.82235,-10.779 -25.09324,-15.21677 -44.44932,-18.01685 -12.98088,-1.87784 -23.22369,-1.20403 -23.22369,-1.20403 -12.82971,-12.4639 -32.04078,-33.8457 -44.27032,-43.9071 -15.2325,-12.98417 -33.14271,-25.2126 -50.19464,-35.26063 1.19507,-43.205505 37.5542,-83.704349 92.78637,-83.423722 z"
         id="path908"
         sodipodi:nodetypes="scsscsccsscssssssccc" />
      <path
         style="color:#000000;font-style:normal;font-variant:normal;font-weight:normal;font-stretch:normal;font-size:medium;line-height:normal;font-family:sans-serif;font-variant-ligatures:normal;font-variant-position:normal;font-variant-caps:normal;font-variant-numeric:normal;font-variant-alternates:normal;font-variant-east-asian:normal;font-feature-settings:normal;font-variation-settings:normal;text-indent:0;text-align:start;text-decoration:none;text-decoration-line:none;text-decoration-style:solid;text-decoration-color:#000000;letter-spacing:normal;word-spacing:normal;text-transform:none;writing-mode:lr-tb;direction:ltr;text-orientation:mixed;dominant-baseline:auto;baseline-shift:baseline;text-anchor:start;white-space:normal;shape-padding:0;shape-margin:0;inline-size:0;clip-rule:nonzero;display:inline;overflow:visible;visibility:visible;isolation:auto;mix-blend-mode:normal;color-interpolation:sRGB;color-interpolation-filters:linearRGB;solid-color:#000000;solid-opacity:1;vector-effect:none;fill:#060000;fill-opacity:1;fill-rule:nonzero;stroke:none;stroke-width:0.994017;stroke-linecap:butt;stroke-linejoin:miter;stroke-miterlimit:4;stroke-dasharray:none;stroke-dashoffset:0;stroke-opacity:1;color-rendering:auto;image-rendering:auto;shape-rendering:auto;text-rendering:auto;enable-background:accumulate;stop-color:#000000"
         d="m 45.947965,155.28258 c -27.238025,52.19963 -18.523039,102.66869 29.790457,132.46364 9.301187,-4.37147 18.522553,-9.6607 25.989498,-13.45169 11.35023,-5.76248 21.94052,-9.14195 37.07347,-13.98045 28.61757,-9.14995 47.07862,-10.66092 60.64079,-13.83325 9.22282,-15.23929 22.63062,-33.07387 46.06369,-43.6289 12.86181,-5.7934 26.42791,-8.86309 39.40325,-10.68689 -16.78395,-19.12173 -32.54951,-35.42737 -50.42976,-51.86175 -22.21428,-18.15553 -42.59176,-31.0255 -55.9501,-37.58027 -58.33031,-28.622099 -109.532054,8.3874 -132.581295,52.55956 z m 9.627569,1.15467 c 23.424903,-47.92489 80.427976,-65.870111 119.929786,-45.00319 23.11068,12.20825 50.53994,32.94114 65.24336,47.34087 0,0 23.69863,21.72573 28.89749,28.72755 0,0 -7.00178,1.69676 -21.88571,7.01616 -16.53633,5.90994 -26.29939,13.03655 -38.94379,27.83204 -8.47972,9.92244 -13.32767,18.89498 -13.32767,18.89498 -17.45145,4.18153 -45.90735,9.00137 -60.98663,13.95218 -19.16863,5.92667 -39.109035,14.50631 -56.730623,23.52028 C 41.461564,254.80158 26.08705,202.74405 55.575534,156.43725 Z"
         id="path933"
         sodipodi:nodetypes="scsscsccsscssssssccc" />
      <path
         style="color:#000000;font-style:normal;font-variant:normal;font-weight:normal;font-stretch:normal;font-size:medium;line-height:normal;font-family:sans-serif;font-variant-ligatures:normal;font-variant-position:normal;font-variant-caps:normal;font-variant-numeric:normal;font-variant-alternates:normal;font-variant-east-asian:normal;font-feature-settings:normal;font-variation-settings:normal;text-indent:0;text-align:start;text-decoration:none;text-decoration-line:none;text-decoration-style:solid;text-decoration-color:#000000;letter-spacing:normal;word-spacing:normal;text-transform:none;writing-mode:lr-tb;direction:ltr;text-orientation:mixed;dominant-baseline:auto;baseline-shift:baseline;text-anchor:start;white-space:normal;shape-padding:0;shape-margin:0;inline-size:0;clip-rule:nonzero;display:inline;overflow:visible;visibility:visible;isolation:auto;mix-blend-mode:normal;color-interpolation:sRGB;color-interpolation-filters:linearRGB;solid-color:#000000;solid-opacity:1;vector-effect:none;fill:#060000;fill-opacity:1;fill-rule:nonzero;stroke:none;stroke-width:0.994017;stroke-linecap:butt;stroke-linejoin:miter;stroke-miterlimit:4;stroke-dasharray:none;stroke-dashoffset:0;stroke-opacity:1;color-rendering:auto;image-rendering:auto;shape-rendering:auto;text-rendering:auto;enable-background:accumulate;stop-color:#000000"
         d="m 298.67336,556.76991 c 59.1483,-3.67695 98.25459,-37.04038 99.07217,-93.44956 -8.57481,-5.66235 -17.90138,-10.7849 -25.02848,-15.18584 -10.83362,-6.68971 -19.21648,-13.95844 -31.20317,-24.34031 -22.6678,-19.63288 -33.49657,-34.55615 -43.23358,-44.45892 -17.92351,-0.007 -40.24809,-2.23926 -61.45527,-16.74048 -11.64007,-7.95935 -21.29043,-17.91819 -29.55959,-28.01528 -7.86165,24.10655 -13.81578,45.89894 -18.79026,69.556 -4.22561,28.22791 -4.83235,52.1759 -3.60417,66.90701 5.363,64.32496 63.75011,88.83891 113.80233,85.72738 z m -3.96896,-8.78154 c -53.48816,4.72171 -98.39765,-34.52902 -100.7476,-78.8534 -1.37489,-25.9321 2.38717,-59.92048 7.24262,-79.82957 0,0 6.54435,-31.32611 9.91149,-39.34795 0,0 5.07792,5.08221 17.35167,15.00499 13.6363,11.02439 24.82966,15.66287 44.13485,18.80827 12.94672,2.10945 23.1993,1.61859 23.1993,1.61859 12.61521,12.69139 31.4587,34.41335 43.51479,44.69179 15.00869,13.25448 32.70752,25.80113 49.58541,36.15238 -1.93112,43.17816 -38.97435,83.02202 -94.19253,81.7549 z"
         id="path935"
         sodipodi:nodetypes="scsscsccsscssssssccc" />
      <path
         style="color:#000000;font-style:normal;font-variant:normal;font-weight:normal;font-stretch:normal;font-size:medium;line-height:normal;font-family:sans-serif;font-variant-ligatures:normal;font-variant-position:normal;font-variant-caps:normal;font-variant-numeric:normal;font-variant-alternates:normal;font-variant-east-asian:normal;font-feature-settings:normal;font-variation-settings:normal;text-indent:0;text-align:start;text-decoration:none;text-decoration-line:none;text-decoration-style:solid;text-decoration-color:#000000;letter-spacing:normal;word-spacing:normal;text-transform:none;writing-mode:lr-tb;direction:ltr;text-orientation:mixed;dominant-baseline:auto;baseline-shift:baseline;text-anchor:start;white-space:normal;shape-padding:0;shape-margin:0;inline-size:0;clip-rule:nonzero;display:inline;overflow:visible;visibility:visible;isolation:auto;mix-blend-mode:normal;color-interpolation:sRGB;color-interpolation-filters:linearRGB;solid-color:#000000;solid-opacity:1;vector-effect:none;fill:#000000;fill-opacity:1;fill-rule:nonzero;stroke:none;stroke-width:0.994;stroke-linecap:butt;stroke-linejoin:miter;stroke-miterlimit:4;stroke-dasharray:none;stroke-dashoffset:0;stroke-opacity:1;color-rendering:auto;image-rendering:auto;shape-rendering:auto;text-rendering:auto;enable-background:accumulate;stop-color:#000000"
         d="M 521.32077,137.81281 C 487.6517,89.408023 438.66451,73.321475 389.50343,101.65216 c -0.472,10.20524 -0.0901,20.77203 -0.2185,29.09701 -0.19408,12.65469 -2.15421,23.52321 -4.94517,39.05822 -5.2779,29.3779 -12.58971,46.26509 -16.12646,59.64056 9.23352,15.24501 18.81368,35.3772 17.2168,60.87247 -0.87645,13.99375 -4.50637,27.32438 -8.9677,39.55163 24.88175,-5.71904 46.78061,-11.86953 69.78563,-19.81247 26.56835,-10.93171 47.57308,-22.73844 59.66818,-31.36288 52.81439,-37.65956 43.8958,-99.92293 15.40456,-140.88389 z m -5.54153,7.89365 c 31.65387,43.05409 20.8914,101.43984 -16.1951,126.24571 -21.69753,14.51279 -53.00423,28.80281 -72.70943,34.91839 0,0 -30.44063,10.55418 -39.10766,11.81863 0,0 1.77349,-6.9331 4.01983,-22.47599 2.49571,-17.26837 0.73313,-29.17345 -6.50128,-47.20814 -4.85164,-12.09462 -10.56111,-20.5604 -10.56111,-20.5604 4.46248,-17.25783 13.51691,-44.45867 16.18275,-59.99944 3.71511,-19.5829 5.4318,-41.08914 5.67478,-60.76757 38.30313,-20.575693 91.82609,-9.57803 119.19722,38.02881 z"
         id="path941"
         sodipodi:nodetypes="scsscsccsscssssssccc" />
      <path
         style="color:#000000;font-style:normal;font-variant:normal;font-weight:normal;font-stretch:normal;font-size:medium;line-height:normal;font-family:sans-serif;font-variant-ligatures:normal;font-variant-position:normal;font-variant-caps:normal;font-variant-numeric:normal;font-variant-alternates:normal;font-variant-east-asian:normal;font-feature-settings:normal;font-variation-settings:normal;text-indent:0;text-align:start;text-decoration:none;text-decoration-line:none;text-decoration-style:solid;text-decoration-color:#000000;letter-spacing:normal;word-spacing:normal;text-transform:none;writing-mode:lr-tb;direction:ltr;text-orientation:mixed;dominant-baseline:auto;baseline-shift:baseline;text-anchor:start;white-space:normal;shape-padding:0;shape-margin:0;inline-size:0;clip-rule:nonzero;display:inline;overflow:visible;visibility:visible;isolation:auto;mix-blend-mode:normal;color-interpolation:sRGB;color-interpolation-filters:linearRGB;solid-color:#000000;solid-opacity:1;vector-effect:none;fill:#060000;fill-opacity:1;fill-rule:nonzero;stroke:none;stroke-width:0.994017;stroke-linecap:butt;stroke-linejoin:miter;stroke-miterlimit:4;stroke-dasharray:none;stroke-dashoffset:0;stroke-opacity:1;color-rendering:auto;image-rendering:auto;shape-rendering:auto;text-rendering:auto;enable-background:accumulate;stop-color:#000000"
         d="m 54.185969,426.17468 c 33.68167,48.4149 82.672341,64.51508 131.824741,36.19725 0.46928,-10.20533 0.0844,-20.77236 0.21054,-29.09754 0.19168,-12.65479 2.14775,-23.52306 4.93437,-39.05763 5.26971,-29.37697 12.57677,-46.26254 16.10982,-59.63724 -9.23756,-15.24789 -18.82308,-35.38305 -17.23323,-60.87841 0.87263,-13.99372 4.49886,-27.3236 8.95675,-39.54994 -24.87975,5.7125 -46.77655,11.85708 -69.77887,19.79391 -26.5649,10.92466 -47.56595,22.72595 -59.658478,31.34727 -52.803103,37.6459 -43.867589,99.91293 -15.365643,140.88233 z m 5.539224,-7.89229 C 28.060174,375.21888 38.806435,316.83499 75.885398,292.03877 97.57855,277.53158 128.88068,263.2498 148.58389,257.13946 c 0,0 30.43716,-10.54614 39.10367,-11.80822 0,0 -1.77159,6.93269 -4.0136,22.4753 -2.49088,17.26802 -0.72511,29.17377 6.51407,47.21076 4.8549,12.09627 10.56654,20.56375 10.56654,20.56375 -4.45764,17.25692 -13.50446,44.45581 -16.16597,59.99619 -3.70965,19.58222 -5.42044,41.0884 -5.65802,60.76715 -38.29675,20.56565 -91.821723,9.55327 -119.205387,-38.062 z"
         id="path945"
         sodipodi:nodetypes="scsscsccsscssssssccc" />
      <path
         style="color:#000000;font-style:normal;font-variant:normal;font-weight:normal;font-stretch:normal;font-size:medium;line-height:normal;font-family:sans-serif;font-variant-ligatures:normal;font-variant-position:normal;font-variant-caps:normal;font-variant-numeric:normal;font-variant-alternates:normal;font-variant-east-asian:normal;font-feature-settings:normal;font-variation-settings:normal;text-indent:0;text-align:start;text-decoration:none;text-decoration-line:none;text-decoration-style:solid;text-decoration-color:#000000;letter-spacing:normal;word-spacing:normal;text-transform:none;writing-mode:lr-tb;direction:ltr;text-orientation:mixed;dominant-baseline:auto;baseline-shift:baseline;text-anchor:start;white-space:normal;shape-padding:0;shape-margin:0;inline-size:0;clip-rule:nonzero;display:inline;overflow:visible;visibility:visible;isolation:auto;mix-blend-mode:normal;color-interpolation:sRGB;color-interpolation-filters:linearRGB;solid-color:#000000;solid-opacity:1;vector-effect:none;fill:#060000;fill-opacity:1;fill-rule:nonzero;stroke:none;stroke-width:0.994017;stroke-linecap:butt;stroke-linejoin:miter;stroke-miterlimit:4;stroke-dasharray:none;stroke-dashoffset:0;stroke-opacity:1;color-rendering:auto;image-rendering:auto;shape-rendering:auto;text-rendering:auto;enable-background:accumulate;stop-color:#000000"
         d="m 527.47125,413.19064 c 26.33041,-52.67002 16.74267,-102.97738 -32.08003,-131.91758 -9.22424,4.5343 -18.35271,9.98485 -25.75298,13.90651 -11.24884,5.96119 -21.77919,9.52633 -36.82629,14.63019 -28.45517,9.65174 -46.88747,11.48714 -60.3929,14.89751 -8.95762,15.39896 -22.05475,33.46637 -45.30182,44.43176 -12.75971,6.01867 -26.27079,9.32646 -39.2128,11.37815 17.11278,18.8233 33.15852,34.84896 51.32086,50.96617 22.52557,17.7618 43.12305,30.27115 56.59304,36.58995 58.8179,27.59141 109.37172,-10.31247 131.65292,-54.88266 z m -9.64621,-0.98515 c -22.59183,48.32886 -79.27623,67.27373 -119.13396,47.10505 -23.31888,-11.79972 -51.10339,-32.04676 -66.05414,-46.18549 0,0 -24.07148,-21.30533 -29.39094,-28.21457 0,0 6.97148,-1.81961 21.76125,-7.39987 16.4317,-6.19985 26.07003,-13.49692 38.45647,-28.51239 8.30672,-10.06987 12.99868,-19.12617 12.99868,-19.12617 17.3766,-4.48783 45.74509,-9.80735 60.7366,-15.02254 19.06333,-6.26276 38.85246,-15.19163 56.3155,-24.51412 36.71932,23.2739 52.99313,75.05239 24.31054,121.8701 z"
         id="path947"
         sodipodi:nodetypes="scsscsccsscssssssccc" />
      <ellipse
         style="fill:#000000;fill-opacity:0;stroke:#120000;stroke-width:11.1486;stroke-miterlimit:4;stroke-dasharray:none;stroke-opacity:1;paint-order:stroke fill markers"
         id="path881"
         cx="288.63754"
         cy="283.87027"
         rx="98.546425"
         ry="95.354767" />
    </g>
  </g>
</svg>
