<?xml version="1.0" encoding="UTF-8" standalone="no"?>
<svg xmlns="http://www.w3.org/2000/svg" version="1.1"
    viewBox="0 0 1300 1300" width="1300" height="1300" id="flower-box">

<svg version="1.1" id="peaks" xmlns="http://www.w3.org/2000/svg" xmlns:xlink="http://www.w3.org/1999/xlink" x="49.9vw" y="-.05vh"
	 viewBox="0 0 460 486" width="12vw" height="12.1vh" style="enable-background:new 0 0 460 486;" xml:space="preserve">

<style type="text/css">
.title { font: 4.5vh sans-serif; }
	.st0{fill:#010101;}
	
</style>
<text x="12vw" y="12vh" class="title">Peaks</text>
<path style= "fill:green" class="st0" d="M434.9,151.7c-4.8-24.5-13.2-47.5-27.8-67.9c-16.6-23.1-38.5-39.3-63.9-51c-40-18.4-82.5-23.4-125.7-24
	c-11.8-0.2-23.5,2.8-35.3,3.5c-4.2,0.3-8.4,0.5-12.5,1.3c-12.2,2.2-24.1,5.6-35.8,9.3c-19.7,6.2-38,15.3-54.6,27.8
	c-27.4,20.8-45.1,48.4-55.7,81c-7.4,23-11.3,46.7-13.5,70.6c-0.2,2.3-0.4,4.5-1.6,6.6c-1.8,3.2-1.4,6.2,1.1,8.9
	c1.3,1.4,2.9,2.3,4.5,3.2c28.2,15.9,55.2,33.6,80.4,54c35.2,28.4,67.4,59.9,97.8,93.4c4.7,5.2,9.5,10.4,13.8,15.9c1.6,2,3,3,5.3,2.8
	c5.4-0.5,10.8-0.1,16.1,0c39.2,1.1,75,12.8,106.8,36.2c17.3,12.8,31.8,28.3,41.7,47.8c0.8,1.6,1.8,3,2.9,4.3
	c0.7,0.7,1.4,1.3,2.4,1.5c5.7,1,7.5,0.2,10-5.1c0.5-1.1,1-2.2,1.4-3.3c6.7-15.8,12.4-32,17.3-48.5c19.2-64.9,29.1-131.3,30.5-188
	C440.7,197.8,439.3,174.6,434.9,151.7z M426.2,229.9c-0.9,44.5-7.4,91.2-18.3,137.3c-6.5,27.3-14.6,54.1-25.3,80.1
	c-0.5,1.3-0.6,3.1-2.1,3.4c-1.6,0.3-2.2-1.5-2.9-2.6c-19.1-26.1-44.3-44.2-73.9-56.3c-21.1-8.6-42.9-14.4-65.7-16
	c-5.1-0.4-10.1,0-15.2,0.3c-4.4,0.3-8.7-0.7-11.8-4.5C179.5,334,144.9,299.4,107.2,268c-24.9-20.8-51.5-39-79.7-55
	c-7-4-6.4-2.7-5.6-10.8c2.3-22.1,6.1-43.9,13-65.1c16-48.6,47.6-82.1,94.9-100.6c14.6-5.7,29.6-9.8,45.3-11.5
	c12.2-1.3,24.3-3.1,36.6-3.8c44.7-2.5,87.4,5.3,127.5,25.6c24.2,12.2,44,29.6,58.7,52.8c10.7,17,17.6,35.5,21.9,55.1
	C425.1,178.5,426.5,202.7,426.2,229.9z"/>
	
</svg>

<svg version="1.1" id="aspiration" xmlns="http://www.w3.org/2000/svg" xmlns:xlink="http://www.w3.org/1999/xlink" x="57.9vw" y="4.25vh"
	 viewBox="0 0 340 497.4"  width="12vw" height="12vh" style="enable-background:new 0 0 392 497.4;" xml:space="preserve">
<style type="text/css">
.title { font: 4.5vh sans-serif; }
	.st0{fill:#010101;}
</style>
<text x="12vw" y="-5vh" transform="rotate(60)" class="title">Aspiration</text>
<path style= "fill:green" class="st0" d="M322.5,375.1c18.8-16.4,34.5-35.2,44.9-58c11.7-25.9,14.8-53,12.2-80.8c-4.1-43.8-21-83.1-42.1-120.9
	c-5.7-10.3-14.2-19-20.7-28.8c-2.4-3.5-4.6-7-7.4-10.2c-8-9.5-16.9-18.1-26-26.4c-15.2-14-32.3-25.3-51.4-33.4
	c-31.7-13.3-64.5-14.9-98-7.7c-23.6,5.1-46.1,13.6-67.9,23.6c-2.1,1-4.1,1.9-6.5,1.9c-3.7,0-6.1,1.9-7.2,5.4
	c-0.6,1.8-0.5,3.7-0.5,5.5c0.3,32.4-1.5,64.6-6.6,96.6c-7,44.7-18.2,88.3-32,131.4c-2.2,6.7-4.3,13.4-6.9,19.9
	c-0.9,2.4-1.1,4.1,0.2,6c3.1,4.4,5.5,9.3,8.1,13.9c18.6,34.5,26.4,71.4,22,110.6c-2.4,21.4-8.6,41.7-20.5,60c-1,1.5-1.7,3.1-2.3,4.7
	c-0.3,1-0.4,1.9-0.1,2.8c2,5.4,3.6,6.6,9.4,6.1c1.2-0.1,2.4-0.2,3.6-0.4c17-2.1,33.9-5.3,50.7-9.3c65.8-15.8,128.3-40.4,178.1-67.6
	C285.5,403.1,304.9,390.3,322.5,375.1z M250.4,406.6c-39,21.5-82.7,39.2-128.1,52.8c-26.9,8-54.2,14.4-82,18.1c-1.4,0.2-3,1-4-0.1
	c-1.1-1.2,0.2-2.7,0.8-3.8C50.2,444,53.3,413.2,49,381.5c-3.1-22.6-9-44.4-19-64.9c-2.2-4.6-5.1-8.7-7.9-13c-2.5-3.7-3.7-7.9-2-12.5
	C36.9,245,49.6,197.8,58,149.4c5.6-32,8-64.1,7.8-96.5c0-8.1-0.9-6.9,6.6-10.2c20.3-9.1,41.1-16.7,62.9-21.3
	c50.1-10.4,94.9,0.2,134.6,31.9C282,63,293,74,302.3,86.7c7.2,9.9,14.8,19.5,21.6,29.8c24.5,37.5,39.1,78.3,41.6,123.2
	c1.5,27.1-3.6,52.9-16.4,77.2c-9.4,17.8-21.9,33-36.8,46.5C294.4,380,274.2,393.3,250.4,406.6z"/>
</svg>

<svg version="1.1" id="people" xmlns="http://www.w3.org/2000/svg" xmlns:xlink="http://www.w3.org/1999/xlink" x="55.75vw" y="11.45vh"
	 viewBox="0 0 540.4 422" width="13.5vw" height="15.5vh" style="enable-background:new 0 0 540.4 422;" xml:space="preserve">
<style type="text/css">
	.st0{fill:#010101;}
</style>
<text x="-8vw" y="-32vh" transform="rotate(120)" class="title">People</text>
<path style= "fill:green" class="st0" d="M264.6,407.4c23.6,8.1,47.7,12.3,72.7,9.9c28.3-2.8,53.3-13.7,76.1-29.8c35.9-25.4,61.5-59.7,83.6-96.9
	c6.1-10.1,9.3-21.8,14.6-32.3c1.8-3.8,3.8-7.5,5.1-11.5c4.2-11.7,7.2-23.7,9.8-35.7c4.5-20.2,5.7-40.6,3.2-61.2
	c-4.3-34.1-19.4-63.3-42.3-88.7c-16.2-17.9-34.8-33.1-54.4-47c-1.9-1.3-3.7-2.6-4.9-4.7c-1.9-3.2-4.7-4.3-8.3-3.5
	c-1.9,0.4-3.4,1.4-5,2.3c-27.9,16.5-56.7,31-87,42.6c-42.2,16.3-85.6,28.4-129.8,38c-6.9,1.5-13.8,3-20.7,4
	c-2.5,0.4-4.1,1.1-5.1,3.2c-2.3,4.9-5.3,9.4-8.1,13.9c-20.6,33.4-48.6,58.6-84.8,74.4c-19.7,8.6-40.4,13.4-62.2,12.2
	c-1.8-0.1-3.5,0.1-5.2,0.4c-1,0.3-1.8,0.6-2.5,1.3c-3.7,4.4-3.9,6.4-0.6,11.2c0.7,1,1.4,2,2.2,2.9c10.3,13.7,21.5,26.7,33.4,39.2
	c46.6,49.1,99.2,90.9,147.6,120.4C221.8,389.4,242.5,399.7,264.6,407.4z M201.2,360.7c-38.1-23-75.3-52-109.8-84.5
	c-20.4-19.3-39.6-39.7-56.7-62c-0.9-1.1-2.4-2.1-1.9-3.5c0.5-1.5,2.4-1.2,3.7-1.2c32.2-3.5,60.4-16.3,85.7-35.8
	c18-14,33.9-30,46.7-48.9c2.9-4.2,5.1-8.7,7.3-13.3c1.9-4,5-7.2,9.8-8c48.3-8.5,95.6-21.1,141.6-38.1c30.5-11.2,59.5-25.1,87.5-41.5
	c7-4.1,5.5-4.2,12.2,0.6c18,13,35,27.2,49.9,43.8c34.1,38.2,47.3,82.3,39.7,132.5c-2.4,15.5-6.3,30.5-12.7,45
	c-5,11.2-9.5,22.6-15,33.6c-20.2,40-48.3,73-85.9,97.6c-22.7,14.9-47.6,23.3-75.1,24.4c-20.1,0.8-39.5-2.5-58.7-8.6
	C246.3,385.5,224.6,374.6,201.2,360.7z"/>
	</svg>

<svg version="1.1" id="interests" xmlns="http://www.w3.org/2000/svg" xmlns:xlink="http://www.w3.org/1999/xlink" x="49.9vw" y="16.7vh"
	 viewBox="0 0 445 486"  width="12vw" height="12vh" style="enable-background:new 0 0 445 486;" xml:space="preserve">
<style type="text/css">
	.st0{fill:#010101;}
</style>
<text x="-23vw" y="-28vh" transform="rotate(180)" class="title">Interests</text>
<path style= "fill:green" class="st0" d="M13,334.4c4.8,24.5,13.2,47.5,27.8,67.9c16.6,23.1,38.5,39.3,63.9,51c40,18.4,82.5,23.4,125.7,24
	c11.8,0.2,23.5-2.8,35.3-3.5c4.2-0.3,8.4-0.5,12.5-1.3c12.2-2.2,24.1-5.6,35.8-9.3c19.7-6.2,38-15.3,54.6-27.8
	c27.4-20.8,45.1-48.4,55.7-81c7.4-23,11.3-46.7,13.5-70.6c0.2-2.3,0.4-4.5,1.6-6.6c1.8-3.2,1.4-6.2-1.1-8.9
	c-1.3-1.4-2.9-2.3-4.5-3.2c-28.2-15.9-55.2-33.6-80.4-54c-35.2-28.4-67.4-59.9-97.8-93.4c-4.7-5.2-9.5-10.4-13.8-15.9
	c-1.6-2-3-3-5.3-2.8c-5.4,0.5-10.8,0.1-16.1,0c-39.2-1.1-75-12.8-106.8-36.2C96.3,50,81.8,34.5,71.9,15c-0.8-1.6-1.8-3-2.9-4.3
	c-0.7-0.7-1.4-1.3-2.4-1.5c-5.7-1-7.5-0.2-10,5.1c-0.5,1.1-1,2.2-1.4,3.3c-6.7,15.8-12.4,32-17.3,48.5C18.7,131,8.8,197.4,7.4,254.1
	C7.2,288.3,8.6,311.5,13,334.4z M21.7,256.2c0.9-44.5,7.4-91.2,18.3-137.3c6.5-27.3,14.6-54.1,25.3-80.1c0.5-1.3,0.6-3.1,2.1-3.4
	c1.6-0.3,2.2,1.5,2.9,2.6c19.1,26.1,44.3,44.2,73.9,56.3c21.1,8.6,42.9,14.4,65.7,16c5.1,0.4,10.1,0,15.2-0.3
	c4.4-0.3,8.7,0.7,11.8,4.5c31.5,37.6,66.1,72.2,103.8,103.6c24.9,20.8,51.5,39,79.7,55c7,4,6.4,2.7,5.6,10.8
	c-2.3,22.1-6.1,43.9-13,65.1c-16,48.6-47.6,82.1-94.9,100.6c-14.6,5.7-29.6,9.8-45.3,11.5c-12.2,1.3-24.3,3.1-36.6,3.8
	c-44.7,2.5-87.4-5.3-127.5-25.6c-24.2-12.2-44-29.6-58.7-52.8c-10.7-17-17.6-35.5-21.9-55.1C22.8,307.6,21.4,283.4,21.7,256.2z"/>
</svg>

<svg version="1.1" id="powers" xmlns="http://www.w3.org/2000/svg" xmlns:xlink="http://www.w3.org/1999/xlink" x="41.2vw" y="12.12vh"
	 viewBox="0 0 379.6 503"  width="12.3vw" height="12.5vh" style="enable-background:new 0 0 379.6 503;" xml:space="preserve">
<style type="text/css">
	.st0{fill:#010101;}
</style>
<text x="-32vw" y="-6vh" transform="rotate(240)" class="title">Powers</text>
<path style= "fill:green" class="st0" d="M58,128c-18.8,16.4-34.5,35.2-44.9,58C1.4,212-1.7,239,0.8,266.9c4.1,43.8,21,83.1,42.1,120.9
	c5.7,10.3,14.2,19,20.7,28.8c2.4,3.5,4.6,7,7.4,10.2c8,9.5,16.9,18.1,26,26.4c15.2,14,32.3,25.3,51.4,33.4
	c31.7,13.3,64.5,14.9,98,7.7c23.6-5.1,46.1-13.6,67.9-23.6c2.1-1,4.1-1.9,6.5-1.9c3.7,0,6.1-1.9,7.2-5.4c0.6-1.8,0.5-3.7,0.5-5.5
	c-0.3-32.4,1.5-64.6,6.6-96.6c7-44.7,18.2-88.3,32-131.4c2.2-6.7,4.3-13.4,6.9-19.9c0.9-2.4,1.1-4.1-0.2-6
	c-3.1-4.4-5.5-9.3-8.1-13.9c-18.6-34.5-26.4-71.4-22-110.6c2.4-21.4,8.6-41.7,20.5-60c1-1.5,1.7-3.1,2.3-4.7c0.3-1,0.4-1.9,0.1-2.8
	c-2-5.4-3.6-6.6-9.4-6.1c-1.2,0.1-2.4,0.2-3.6,0.4c-17,2.1-33.9,5.3-50.7,9.3C237,31.2,174.5,55.9,124.7,83
	C95,99.9,75.6,112.8,58,128z M130,96.4c39-21.5,82.7-39.2,128.1-52.8c26.9-8,54.2-14.4,82-18.1c1.4-0.2,3-1,4,0.1
	c1.1,1.2-0.2,2.7-0.8,3.8c-13.1,29.6-16.1,60.5-11.8,92.1c3.1,22.6,9,44.4,19,64.9c2.2,4.6,5,8.7,7.9,13c2.5,3.7,3.7,7.9,2,12.5
	c-16.8,46.1-29.5,93.3-37.8,141.7c-5.6,32-8,64.1-7.8,96.5c0,8.1,0.9,6.9-6.6,10.2c-20.3,9.1-41.1,16.7-62.9,21.3
	c-50.1,10.4-94.9-0.2-134.6-31.9c-12.2-9.8-23.3-20.7-32.6-33.5c-7.2-9.9-14.8-19.5-21.6-29.8C32,349.1,17.4,308.2,15,263.3
	c-1.5-27.1,3.6-52.9,16.4-77.2c9.4-17.8,21.9-33,36.8-46.5C86.1,123.1,106.3,109.8,130,96.4z"/>
</svg> 

<svg version="1.1" id="challenges" xmlns="http://www.w3.org/2000/svg" xmlns:xlink="http://www.w3.org/1999/xlink" x="42.4vw" y="2.9vh"
	 viewBox="0 0 537 426"  width="13.25vw" height="13vh" style="enable-background:new 0 0 537 426;" xml:space="preserve">
	 
<style type="text/css">
	.st0{fill:#010101;}
</style>
<text x="-18vw" y="15vh" transform="rotate(300)" class="title">Challenges</text>
<path style= "fill:green" class="st0" d="M273.6,16.6c-23.6-8.1-47.7-12.3-72.7-9.9c-28.3,2.8-53.3,13.7-76.1,29.8C88.8,62,63.2,96.3,41.1,133.4
	c-6.1,10.1-9.3,21.8-14.6,32.3c-1.8,3.8-3.8,7.5-5.1,11.5c-4.2,11.7-7.2,23.7-9.8,35.7C7,233,5.8,253.4,8.3,274
	c4.3,34.1,19.4,63.3,42.3,88.7c16.2,17.9,34.8,33.1,54.4,47c1.9,1.3,3.7,2.6,4.9,4.7c1.9,3.2,4.7,4.3,8.3,3.5c1.9-0.4,3.4-1.4,5-2.3
	c27.9-16.5,56.7-31,87-42.6c42.2-16.3,85.6-28.4,129.8-38c6.9-1.5,13.8-3,20.7-4c2.5-0.4,4.1-1.1,5.1-3.2c2.3-4.9,5.3-9.4,8-13.9
	c20.6-33.4,48.6-58.6,84.8-74.4c19.7-8.6,40.4-13.4,62.2-12.2c1.8,0.1,3.5-0.1,5.2-0.4c1-0.3,1.8-0.6,2.5-1.3
	c3.7-4.4,3.9-6.4,0.6-11.2c-0.7-1-1.4-2-2.2-2.9c-10.3-13.7-21.5-26.7-33.4-39.2c-46.6-49.1-99.2-90.9-147.6-120.4
	C316.4,34.6,295.6,24.2,273.6,16.6z M336.9,63.2c38.1,23,75.3,52,109.8,84.5c20.4,19.3,39.6,39.7,56.7,62c0.9,1.1,2.4,2.1,1.9,3.5
	c-0.5,1.5-2.4,1.2-3.7,1.2c-32.2,3.5-60.4,16.3-85.7,35.8c-18,14-33.9,30-46.7,48.9c-2.9,4.2-5,8.7-7.3,13.3c-1.9,4-5,7.2-9.8,8
	c-48.3,8.5-95.6,21.1-141.6,38.1c-30.5,11.2-59.5,25.1-87.5,41.5c-7,4.1-5.5,4.2-12.2-0.6c-18-13-35-27.2-49.9-43.8
	c-34.1-38.2-47.3-82.3-39.7-132.5c2.4-15.5,6.3-30.5,12.7-45c5-11.2,9.5-22.6,15-33.6c20.2-40,48.3-73,85.9-97.6
	c22.7-14.9,47.6-23.3,75.1-24.4c20.1-0.8,39.5,2.5,58.7,8.6C291.9,38.5,313.5,49.3,336.9,63.2z"/>

</svg>



<!-- Generator: Adobe Illustrator 25.2.1, SVG Export Plug-In . SVG Version: 6.00 Build 0)  -->
<svg version="1.1" id="Layer_1" xmlns="http://www.w3.org/2000/svg" xmlns:xlink="http://www.w3.org/1999/xlink" x="50.4vw" y="8.8vh"
	 viewBox="0 0 203 199" width="11vw" height="11vh" style="enable-background:new 0 0 203 199;" xml:space="preserve">
<path style= "fill:green"  d="M172.6,37.8c-13.8-14.7-31.1-23.7-51.1-27.9c-11.9-2.4-24-2.7-36-0.7C62,13.2,42.8,24.1,27.9,41.9
	C14.9,57.4,7.9,75.2,7,95.1c-0.9,19.8,4.3,38.1,15.8,54.5c18.8,26.8,45.2,40.5,78.7,41.5c7.1-0.1,13.9-0.8,20.4-2.4
	c17.8-4.1,33.1-12.7,45.7-25.4c17.3-17.4,27.2-38.1,28.3-62.2C197.1,77.1,189.4,55.8,172.6,37.8z M139.2,174.3
	c-25.9,12.7-52.3,12.5-77.8-0.6c-27.1-14-42.2-36.4-46.2-65.7c-0.2-1.8-0.4-3.6-0.4-5.4c-0.1-1.4,0-2.8,0-4.3
	c0.3-32.4,19.8-61.7,50.3-75.3c17.7-7.9,36.3-9.8,55.3-5.7c24.8,5.3,44,18.3,56.8,39.6c6.5,10.8,10,22.6,10.8,35.1
	C190.2,125.4,170.9,158.8,139.2,174.3z"/>
</svg>



<!-- <svg  version="1.1" id= "circle" xmlns:svg="http://www.w3.org/2000/svg"
   xmlns="http://www.w3.org/2000/svg"
   xmlns:sodipodi="http://sodipodi.sourceforge.net/DTD/sodipodi-0.dtd"
   xmlns:inkscape="http://www.inkscape.org/namespaces/inkscape"
   width="14vw"
   height="14vh"
   viewBox="0 0 210 297"
   x="48.8vw" y="9vh"
 >
 
  <g id="circle1">
    <ellipse
       style="fill:#000000;fill-opacity:0;stroke:#000000;stroke-width:9.1896;stroke-miterlimit:4;stroke-dasharray:none;stroke-opacity:1"
       id="path1436"
       cx="105.07738"
       cy="108.85713"
       rx="102.05357"
       ry="97.51786" />
    <circle
       style="fill:#000000;fill-opacity:0;stroke:#000000;stroke-width:5.87375;stroke-miterlimit:4;stroke-dasharray:none;stroke-opacity:1"
       id="path1448"
       cx="-24.568451"
       cy="1022.4255"
       r="140.98511" />
  </g>
</svg> -->

</svg> 