<?xml version="1.0" encoding="utf-8"?>
<!-- Generator: Adobe Illustrator 25.2.1, SVG Export Plug-In . SVG Version: 6.00 Build 0)  -->
<svg version="1.1" id="Layer_1" xmlns="http://www.w3.org/2000/svg" xmlns:xlink="http://www.w3.org/1999/xlink" x="0px" y="0px"
	 viewBox="0 0 203 199" style="enable-background:new 0 0 203 199;" xml:space="preserve">
<path d="M172.6,37.8c-13.8-14.7-31.1-23.7-51.1-27.9c-11.9-2.4-24-2.7-36-0.7C62,13.2,42.8,24.1,27.9,41.9
	C14.9,57.4,7.9,75.2,7,95.1c-0.9,19.8,4.3,38.1,15.8,54.5c18.8,26.8,45.2,40.5,78.7,41.5c7.1-0.1,13.9-0.8,20.4-2.4
	c17.8-4.1,33.1-12.7,45.7-25.4c17.3-17.4,27.2-38.1,28.3-62.2C197.1,77.1,189.4,55.8,172.6,37.8z M139.2,174.3
	c-25.9,12.7-52.3,12.5-77.8-0.6c-27.1-14-42.2-36.4-46.2-65.7c-0.2-1.8-0.4-3.6-0.4-5.4c-0.1-1.4,0-2.8,0-4.3
	c0.3-32.4,19.8-61.7,50.3-75.3c17.7-7.9,36.3-9.8,55.3-5.7c24.8,5.3,44,18.3,56.8,39.6c6.5,10.8,10,22.6,10.8,35.1
	C190.2,125.4,170.9,158.8,139.2,174.3z"/>
</svg>
