<?xml version="1.0" encoding="UTF-8" standalone="no"?>
<svg
   xmlns:osb="http://www.openswatchbook.org/uri/2009/osb"
   xmlns:dc="http://purl.org/dc/elements/1.1/"
   xmlns:cc="http://creativecommons.org/ns#"
   xmlns:rdf="http://www.w3.org/1999/02/22-rdf-syntax-ns#"
   xmlns:svg="http://www.w3.org/2000/svg"
   xmlns="http://www.w3.org/2000/svg"
   version="1.1"
   id="svg869"
   width="575.35999"
   height="577.59998"
   viewBox="0 0 575.35999 577.59998">
  <metadata
     id="metadata875">
    <rdf:RDF>
      <cc:Work
         rdf:about="">
        <dc:format>image/svg+xml</dc:format>
        <dc:type
           rdf:resource="http://purl.org/dc/dcmitype/StillImage" />
        <dc:title></dc:title>
      </cc:Work>
    </rdf:RDF>
  </metadata>
  <defs
     id="defs873">
    <linearGradient
       id="linearGradient1040"
       osb:paint="solid">
      <stop
         style="stop-color:#51ffff;stop-opacity:1;"
         offset="0"
         id="stop1038" />
    </linearGradient>
  </defs>
  <g
     id="g877">
    <path
       style="color:#000000;font-style:normal;font-variant:normal;font-weight:normal;font-stretch:normal;font-size:medium;line-height:normal;font-family:sans-serif;font-variant-ligatures:normal;font-variant-position:normal;font-variant-caps:normal;font-variant-numeric:normal;font-variant-alternates:normal;font-variant-east-asian:normal;font-feature-settings:normal;font-variation-settings:normal;text-indent:0;text-align:start;text-decoration:none;text-decoration-line:none;text-decoration-style:solid;text-decoration-color:#000000;letter-spacing:normal;word-spacing:normal;text-transform:none;writing-mode:lr-tb;direction:ltr;text-orientation:mixed;dominant-baseline:auto;baseline-shift:baseline;text-anchor:start;white-space:normal;shape-padding:0;shape-margin:0;inline-size:0;clip-rule:nonzero;display:inline;overflow:visible;visibility:visible;isolation:auto;mix-blend-mode:normal;color-interpolation:sRGB;color-interpolation-filters:linearRGB;solid-color:#000000;solid-opacity:1;vector-effect:none;fill:#000000;fill-opacity:0;fill-rule:nonzero;stroke:none;stroke-width:10.9432;stroke-linecap:butt;stroke-linejoin:miter;stroke-miterlimit:4;stroke-dasharray:none;stroke-dashoffset:0;stroke-opacity:1;color-rendering:auto;image-rendering:auto;shape-rendering:auto;text-rendering:auto;enable-background:accumulate;stop-color:#000000"
       d="m 384.13664,78.055807 c 0,34.457753 -42.74698,62.391293 -95.47806,62.391293 -52.73108,0 -95.47807,-27.93354 -95.47807,-62.391293 0,-34.457761 42.74699,-62.391295 95.47807,-62.391295 52.73108,0 95.47806,27.933534 95.47806,62.391295 z"
       id="path897" />
    <path
       style="color:#000000;font-style:normal;font-variant:normal;font-weight:normal;font-stretch:normal;font-size:medium;line-height:normal;font-family:sans-serif;font-variant-ligatures:normal;font-variant-position:normal;font-variant-caps:normal;font-variant-numeric:normal;font-variant-alternates:normal;font-variant-east-asian:normal;font-feature-settings:normal;font-variation-settings:normal;text-indent:0;text-align:start;text-decoration:none;text-decoration-line:none;text-decoration-style:solid;text-decoration-color:#000000;letter-spacing:normal;word-spacing:normal;text-transform:none;writing-mode:lr-tb;direction:ltr;text-orientation:mixed;dominant-baseline:auto;baseline-shift:baseline;text-anchor:start;white-space:normal;shape-padding:0;shape-margin:0;inline-size:0;clip-rule:nonzero;display:inline;overflow:visible;visibility:visible;isolation:auto;mix-blend-mode:normal;color-interpolation:sRGB;color-interpolation-filters:linearRGB;solid-color:#000000;solid-opacity:1;vector-effect:none;fill:#000000;fill-opacity:0;fill-rule:nonzero;stroke:none;stroke-width:10.2736;stroke-linecap:butt;stroke-linejoin:miter;stroke-miterlimit:4;stroke-dasharray:none;stroke-dashoffset:0;stroke-opacity:1;color-rendering:auto;image-rendering:auto;shape-rendering:auto;text-rendering:auto;enable-background:accumulate;stop-color:#000000"
       d="m 389.50343,101.65216 c 0,49.62938 -45.5137,89.86194 -101.65768,89.86194 -56.14399,0 -101.65768,-40.23256 -101.65768,-89.86194 0,-49.62938 45.51369,-89.861939 101.65768,-89.861939 56.14398,0 101.65768,40.232559 101.65768,89.861939 z"
       id="path906" />
    <g
       id="g3142"
       transform="matrix(1,0,0,1.0158426,-187.72258,0.59900914)">
      <path
         style="color:#000000;font-style:normal;font-variant:normal;font-weight:normal;font-stretch:normal;font-size:medium;line-height:normal;font-family:sans-serif;font-variant-ligatures:normal;font-variant-position:normal;font-variant-caps:normal;font-variant-numeric:normal;font-variant-alternates:normal;font-variant-east-asian:normal;font-feature-settings:normal;font-variation-settings:normal;text-indent:0;text-align:start;text-decoration:none;text-decoration-line:none;text-decoration-style:solid;text-decoration-color:#000000;letter-spacing:normal;word-spacing:normal;text-transform:none;writing-mode:lr-tb;direction:ltr;text-orientation:mixed;dominant-baseline:auto;baseline-shift:baseline;text-anchor:start;white-space:normal;shape-padding:0;shape-margin:0;inline-size:0;clip-rule:nonzero;display:inline;overflow:visible;visibility:visible;isolation:auto;mix-blend-mode:normal;color-interpolation:sRGB;color-interpolation-filters:linearRGB;solid-color:#000000;solid-opacity:1;vector-effect:none;fill:#000000;fill-opacity:1;fill-rule:nonzero;stroke:none;stroke-width:0.376592;stroke-linecap:butt;stroke-linejoin:miter;stroke-miterlimit:4;stroke-dasharray:none;stroke-dashoffset:0;stroke-opacity:1;color-rendering:auto;image-rendering:auto;shape-rendering:auto;text-rendering:auto;enable-background:accumulate;stop-color:#000000"
         d="m 422.93893,46.08955 c -23.01007,1.744184 -38.018,14.294968 -37.96201,35.085367 3.37695,2.029963 7.04303,3.856067 9.84777,5.430763 4.26341,2.393617 7.57622,5.016752 12.31318,8.763242 8.95797,7.084898 13.27412,12.512378 17.13177,16.097158 6.98011,-0.1153 15.68888,0.56017 24.04397,5.7638 4.58587,2.85614 8.41019,6.46216 11.69753,10.12821 2.90159,-8.93427 5.07568,-17.00329 6.85591,-25.75291 1.45826,-10.428906 1.53558,-19.256977 0.95951,-24.67686 -2.51548,-23.666431 -25.41619,-32.314725 -44.88763,-30.83877 z m 1.60393,3.209593 c 20.79884,-2.091882 38.5487,12.075171 39.75805,28.39186 0.70756,9.546116 -0.53192,22.094553 -2.29068,29.462367 0,0 -2.34068,11.58578 -3.59875,14.56373 0,0 -2.01124,-1.8392 -6.85692,-5.41465 -5.38366,-3.97238 -9.77355,-5.60783 -17.31253,-6.63975 -5.05592,-0.69204 -9.04538,-0.44372 -9.04538,-0.44372 -4.99704,-4.59332 -12.47954,-12.473154 -17.24282,-16.181088 -5.93289,-4.785052 -12.90872,-9.291597 -19.55027,-12.994598 0.46547,-15.922528 14.62696,-30.84757 36.1393,-30.744151 z"
         id="path908" />
      <path
         style="color:#000000;font-style:normal;font-variant:normal;font-weight:normal;font-stretch:normal;font-size:medium;line-height:normal;font-family:sans-serif;font-variant-ligatures:normal;font-variant-position:normal;font-variant-caps:normal;font-variant-numeric:normal;font-variant-alternates:normal;font-variant-east-asian:normal;font-feature-settings:normal;font-variation-settings:normal;text-indent:0;text-align:start;text-decoration:none;text-decoration-line:none;text-decoration-style:solid;text-decoration-color:#000000;letter-spacing:normal;word-spacing:normal;text-transform:none;writing-mode:lr-tb;direction:ltr;text-orientation:mixed;dominant-baseline:auto;baseline-shift:baseline;text-anchor:start;white-space:normal;shape-padding:0;shape-margin:0;inline-size:0;clip-rule:nonzero;display:inline;overflow:visible;visibility:visible;isolation:auto;mix-blend-mode:normal;color-interpolation:sRGB;color-interpolation-filters:linearRGB;solid-color:#000000;solid-opacity:1;vector-effect:none;fill:#000000;fill-opacity:1;fill-rule:nonzero;stroke:none;stroke-width:0.376598;stroke-linecap:butt;stroke-linejoin:miter;stroke-miterlimit:4;stroke-dasharray:none;stroke-dashoffset:0;stroke-opacity:1;color-rendering:auto;image-rendering:auto;shape-rendering:auto;text-rendering:auto;enable-background:accumulate;stop-color:#000000"
         d="m 330.35656,94.754676 c -10.60892,19.237124 -7.21453,37.836494 11.60306,48.816834 3.62272,-1.61102 7.21434,-3.56026 10.12263,-4.95736 4.4208,-2.12364 8.5456,-3.36908 14.43972,-5.15221 11.14624,-3.37204 18.33662,-3.92887 23.61894,-5.09797 3.59219,-5.61614 8.81438,-12.18872 17.94131,-16.07856 5.00953,-2.13505 10.29339,-3.26632 15.34714,-3.93844 -6.53717,-7.04694 -12.67768,-13.056054 -19.64185,-19.112618 -8.65222,-6.690858 -16.58903,-11.433829 -21.79196,-13.849459 -22.71903,-10.548105 -42.66156,3.091009 -51.63899,19.369783 z m 3.74983,0.42553 c 9.12375,-17.661767 31.32584,-24.275121 46.71137,-16.585033 9.00136,4.499107 19.68476,12.139799 25.41158,17.446543 0,0 9.23037,8.006574 11.25527,10.586954 0,0 -2.72712,0.62531 -8.52425,2.58567 -6.44073,2.17799 -10.24333,4.80436 -15.16819,10.25694 -3.30276,3.65672 -5.19099,6.96337 -5.19099,6.96337 -6.79715,1.54102 -17.88041,3.31728 -23.75363,5.1418 -7.46598,2.18415 -15.23255,5.34601 -22.09597,8.66793 -14.14243,-8.81397 -20.13063,-27.99873 -8.64519,-45.064174 z"
         id="path933" />
      <path
         style="color:#000000;font-style:normal;font-variant:normal;font-weight:normal;font-stretch:normal;font-size:medium;line-height:normal;font-family:sans-serif;font-variant-ligatures:normal;font-variant-position:normal;font-variant-caps:normal;font-variant-numeric:normal;font-variant-alternates:normal;font-variant-east-asian:normal;font-feature-settings:normal;font-variation-settings:normal;text-indent:0;text-align:start;text-decoration:none;text-decoration-line:none;text-decoration-style:solid;text-decoration-color:#000000;letter-spacing:normal;word-spacing:normal;text-transform:none;writing-mode:lr-tb;direction:ltr;text-orientation:mixed;dominant-baseline:auto;baseline-shift:baseline;text-anchor:start;white-space:normal;shape-padding:0;shape-margin:0;inline-size:0;clip-rule:nonzero;display:inline;overflow:visible;visibility:visible;isolation:auto;mix-blend-mode:normal;color-interpolation:sRGB;color-interpolation-filters:linearRGB;solid-color:#000000;solid-opacity:1;vector-effect:none;fill:#000000;fill-opacity:1;fill-rule:nonzero;stroke:none;stroke-width:0.376598;stroke-linecap:butt;stroke-linejoin:miter;stroke-miterlimit:4;stroke-dasharray:none;stroke-dashoffset:0;stroke-opacity:1;color-rendering:auto;image-rendering:auto;shape-rendering:auto;text-rendering:auto;enable-background:accumulate;stop-color:#000000"
         d="m 428.79038,242.71483 c 23.03763,-1.35507 38.26911,-13.6505 38.58755,-34.43898 -3.3398,-2.08674 -6.9724,-3.97456 -9.74832,-5.59644 -4.21958,-2.46535 -7.48462,-5.1441 -12.1533,-8.97013 -8.82887,-7.23531 -13.04656,-12.73498 -16.83902,-16.38445 -6.98101,-0.003 -15.6762,-0.82524 -23.93617,-6.16937 -4.53368,-2.93326 -8.29239,-6.60339 -11.51314,-10.32447 -3.06203,8.88398 -5.3811,16.91514 -7.3186,25.63347 -1.64583,10.40284 -1.88215,19.22839 -1.40379,24.65725 2.08883,23.70568 24.82998,32.73981 44.32479,31.59312 z m -1.54586,-3.23626 c -20.83307,1.74009 -38.32483,-12.72499 -39.24011,-29.05985 -0.53551,-9.55676 0.92978,-22.0825 2.82092,-29.4196 0,0 2.54896,-11.54462 3.86042,-14.5009 0,0 1.9778,1.87294 6.75829,5.52979 5.31119,4.06281 9.67089,5.77223 17.19005,6.93141 5.04261,0.77739 9.03588,0.5965 9.03588,0.5965 4.91349,4.67716 12.25282,12.68235 16.94854,16.47027 5.84572,4.88467 12.73923,9.50849 19.31298,13.32324 -0.75215,15.91245 -15.18009,30.59611 -36.68697,30.12914 z"
         id="path935" />
      <path
         style="color:#000000;font-style:normal;font-variant:normal;font-weight:normal;font-stretch:normal;font-size:medium;line-height:normal;font-family:sans-serif;font-variant-ligatures:normal;font-variant-position:normal;font-variant-caps:normal;font-variant-numeric:normal;font-variant-alternates:normal;font-variant-east-asian:normal;font-feature-settings:normal;font-variation-settings:normal;text-indent:0;text-align:start;text-decoration:none;text-decoration-line:none;text-decoration-style:solid;text-decoration-color:#000000;letter-spacing:normal;word-spacing:normal;text-transform:none;writing-mode:lr-tb;direction:ltr;text-orientation:mixed;dominant-baseline:auto;baseline-shift:baseline;text-anchor:start;white-space:normal;shape-padding:0;shape-margin:0;inline-size:0;clip-rule:nonzero;display:inline;overflow:visible;visibility:visible;isolation:auto;mix-blend-mode:normal;color-interpolation:sRGB;color-interpolation-filters:linearRGB;solid-color:#000000;solid-opacity:1;vector-effect:none;fill:#000000;fill-opacity:1;fill-rule:nonzero;stroke:none;stroke-width:0.376592;stroke-linecap:butt;stroke-linejoin:miter;stroke-miterlimit:4;stroke-dasharray:none;stroke-dashoffset:0;stroke-opacity:1;color-rendering:auto;image-rendering:auto;shape-rendering:auto;text-rendering:auto;enable-background:accumulate;stop-color:#000000"
         d="m 515.50916,88.316536 c -13.11374,-17.83862 -32.19373,-23.766997 -51.34144,-13.326287 -0.18384,3.760938 -0.0351,7.655118 -0.0851,10.723123 -0.0756,4.66363 -0.83905,8.669014 -1.92609,14.394128 -2.05569,10.82664 -4.90356,17.05008 -6.28109,21.97934 3.59636,5.61824 7.32773,13.03756 6.70576,22.43334 -0.34137,5.15711 -1.75518,10.06985 -3.49282,14.57596 9.69117,-2.10764 18.22054,-4.37428 27.18075,-7.30149 10.34809,-4.02866 18.5292,-8.3798 23.24012,-11.55816 20.57063,-13.87869 17.09694,-36.82461 5.99991,-51.919954 z m -2.15837,2.909046 c 12.32884,15.866728 8.13698,37.383628 -6.30782,46.525338 -8.45095,5.3484 -20.64457,10.6147 -28.31954,12.86848 0,0 -11.8563,3.88953 -15.23201,4.35552 0,0 0.69075,-2.55506 1.56568,-8.28308 0.97205,-6.36391 0.28555,-10.75129 -2.53218,-17.39762 -1.88966,-4.45723 -4.11344,-7.57712 -4.11344,-7.57712 1.73809,-6.36003 5.26469,-16.38436 6.30301,-22.111604 1.44699,-7.216884 2.11563,-15.14258 2.21026,-22.394673 14.91866,-7.582762 35.76528,-3.529792 46.42604,14.014759 z"
         id="path941" />
      <path
         style="color:#000000;font-style:normal;font-variant:normal;font-weight:normal;font-stretch:normal;font-size:medium;line-height:normal;font-family:sans-serif;font-variant-ligatures:normal;font-variant-position:normal;font-variant-caps:normal;font-variant-numeric:normal;font-variant-alternates:normal;font-variant-east-asian:normal;font-feature-settings:normal;font-variation-settings:normal;text-indent:0;text-align:start;text-decoration:none;text-decoration-line:none;text-decoration-style:solid;text-decoration-color:#000000;letter-spacing:normal;word-spacing:normal;text-transform:none;writing-mode:lr-tb;direction:ltr;text-orientation:mixed;dominant-baseline:auto;baseline-shift:baseline;text-anchor:start;white-space:normal;shape-padding:0;shape-margin:0;inline-size:0;clip-rule:nonzero;display:inline;overflow:visible;visibility:visible;isolation:auto;mix-blend-mode:normal;color-interpolation:sRGB;color-interpolation-filters:linearRGB;solid-color:#000000;solid-opacity:1;vector-effect:none;fill:#000000;fill-opacity:1;fill-rule:nonzero;stroke:none;stroke-width:0.376598;stroke-linecap:butt;stroke-linejoin:miter;stroke-miterlimit:4;stroke-dasharray:none;stroke-dashoffset:0;stroke-opacity:1;color-rendering:auto;image-rendering:auto;shape-rendering:auto;text-rendering:auto;enable-background:accumulate;stop-color:#000000"
         d="m 333.56517,194.58656 c 13.11865,17.84234 32.19999,23.77574 51.34432,13.33977 0.18278,-3.76097 0.0329,-7.65524 0.082,-10.72332 0.0747,-4.66367 0.83652,-8.66895 1.92188,-14.39391 2.0525,-10.8263 4.89852,-17.04914 6.2746,-21.97811 -3.59793,-5.61931 -7.33139,-13.03972 -6.71216,-22.43553 0.33988,-5.15711 1.75226,-10.06957 3.48856,-14.57534 -9.69039,2.10523 -18.21896,4.36969 -27.17812,7.29465 -10.34674,4.02606 -18.52642,8.37519 -23.23633,11.55241 -20.56624,13.87365 -17.08596,36.82092 -5.98476,51.91938 z m 2.15747,-2.90855 c -12.33318,-15.8702 -8.14763,-37.38642 6.29423,-46.52457 8.44925,-5.34634 20.64109,-10.6096 28.31528,-12.86145 0,0 11.85495,-3.88657 15.23046,-4.35168 0,0 -0.69002,2.5549 -1.56326,8.28282 -0.97017,6.36379 -0.28242,10.75142 2.53716,17.39859 1.89094,4.45784 4.11556,7.57836 4.11556,7.57836 -1.7362,6.35969 -5.25984,16.3833 -6.29647,22.1104 -1.44487,7.21664 -2.11121,15.14231 -2.20374,22.39452 -14.91617,7.57906 -35.76358,3.52067 -46.42922,-14.02699 z"
         id="path945" />
      <path
         style="color:#000000;font-style:normal;font-variant:normal;font-weight:normal;font-stretch:normal;font-size:medium;line-height:normal;font-family:sans-serif;font-variant-ligatures:normal;font-variant-position:normal;font-variant-caps:normal;font-variant-numeric:normal;font-variant-alternates:normal;font-variant-east-asian:normal;font-feature-settings:normal;font-variation-settings:normal;text-indent:0;text-align:start;text-decoration:none;text-decoration-line:none;text-decoration-style:solid;text-decoration-color:#000000;letter-spacing:normal;word-spacing:normal;text-transform:none;writing-mode:lr-tb;direction:ltr;text-orientation:mixed;dominant-baseline:auto;baseline-shift:baseline;text-anchor:start;white-space:normal;shape-padding:0;shape-margin:0;inline-size:0;clip-rule:nonzero;display:inline;overflow:visible;visibility:visible;isolation:auto;mix-blend-mode:normal;color-interpolation:sRGB;color-interpolation-filters:linearRGB;solid-color:#000000;solid-opacity:1;vector-effect:none;fill:#000000;fill-opacity:1;fill-rule:nonzero;stroke:none;stroke-width:0.376598;stroke-linecap:butt;stroke-linejoin:miter;stroke-miterlimit:4;stroke-dasharray:none;stroke-dashoffset:0;stroke-opacity:1;color-rendering:auto;image-rendering:auto;shape-rendering:auto;text-rendering:auto;enable-background:accumulate;stop-color:#000000"
         d="m 517.9047,189.80155 c 10.25541,-19.41049 6.52109,-37.95026 -12.49482,-48.6156 -3.59275,1.67103 -7.14819,3.67972 -10.03051,5.12497 -4.38131,2.19688 -8.48276,3.51074 -14.34345,5.39166 -11.08298,3.55696 -18.26216,4.23336 -23.52238,5.49018 -3.4889,5.67498 -8.59009,12.33337 -17.64457,16.37444 -4.96977,2.21807 -10.23219,3.43709 -15.27297,4.19319 6.66525,6.93696 12.91489,12.84289 19.98892,18.78257 8.77347,6.54576 16.79597,11.15583 22.04239,13.4845 22.90894,10.16826 42.5991,-3.80046 51.27739,-20.22591 z m -3.75709,-0.36306 c -8.79928,17.81064 -30.87724,24.79239 -46.4014,17.35963 -9.08245,-4.34855 -19.90422,-11.8102 -25.72738,-17.02074 0,0 -9.37558,-7.85166 -11.44745,-10.39792 0,0 2.71531,-0.67058 8.47577,-2.72708 6.39997,-2.28483 10.154,-4.97402 14.97838,-10.50767 3.23538,-3.71105 5.06285,-7.04857 5.06285,-7.04857 6.768,-1.6539 17.81722,-3.6143 23.65625,-5.53626 7.42496,-2.30801 15.13262,-5.59857 21.93428,-9.03419 14.30178,8.57713 20.64026,27.65907 9.4687,44.9128 z"
         id="path947" />
      <ellipse
         style="fill:#feffff;fill-opacity:1;fill-rule:nonzero;stroke:#000000;stroke-width:10;stroke-miterlimit:4;stroke-dasharray:none;stroke-opacity:1;paint-order:stroke fill markers"
         id="path881"
         cx="424.88156"
         cy="142.14311"
         rx="38.382774"
         ry="35.141098" />
      <path
         style="fill:#feffff;fill-opacity:1;fill-rule:nonzero;stroke:#000000;stroke-width:6.63331;stroke-miterlimit:4;stroke-dasharray:none;stroke-opacity:1;paint-order:stroke fill markers"
         d="m 358.78541,208.05013 c -5.47141,-1.38322 -11.50684,-4.49761 -15.52107,-8.00916 -4.56807,-3.99603 -11.0013,-13.73226 -12.77899,-19.34008 -3.73351,-11.77751 -0.38626,-24.86757 8.30884,-32.49323 6.23451,-5.46772 22.5624,-13.06111 34.75402,-16.16259 9.23697,-2.34983 9.66186,-2.36957 9.12329,-0.42392 -2.77494,10.02473 -1.28535,21.34698 3.95294,30.04602 l 2.31796,3.84936 -2.05593,6.91579 c -2.72535,9.16755 -3.8809,15.42516 -4.60991,24.96375 -0.39634,5.18571 -0.90052,8.09192 -1.46769,8.45998 -4.03087,2.61585 -15.74065,3.78243 -22.02346,2.19408 z"
         id="path2987" />
      <path
         style="fill:#feffff;fill-opacity:1;fill-rule:nonzero;stroke:#000000;stroke-width:6.63331;stroke-miterlimit:4;stroke-dasharray:none;stroke-opacity:1;paint-order:stroke fill markers"
         d="m 337.90425,135.5773 c -9.44669,-9.33844 -11.94221,-21.55777 -6.87024,-33.64019 3.72527,-8.874354 11.41817,-17.894087 18.54073,-21.738577 4.15327,-2.241778 12.53713,-4.462987 16.84536,-4.462987 7.95472,0 14.4826,2.613317 26.1281,10.459905 7.80928,5.261789 20.23158,15.566589 20.23158,16.782909 0,0.33939 -0.56665,0.61707 -1.25923,0.61707 -0.69258,0 -3.92133,1.33265 -7.17502,2.96145 -6.76478,3.38646 -13.23844,8.9412 -16.75821,14.37942 l -2.30755,3.56529 -6.31575,1.57148 c -10.63634,2.64653 -19.86427,5.90311 -28.40009,10.02253 l -8.15442,3.93534 z"
         id="path2989" />
      <path
         style="fill:#feffff;fill-opacity:1;fill-rule:nonzero;stroke:#000000;stroke-width:6.63331;stroke-miterlimit:4;stroke-dasharray:none;stroke-opacity:1;paint-order:stroke fill markers"
         d="m 467.66256,150.52608 c 0.27793,-1.55054 0.49129,-5.80415 0.47412,-9.45246 -0.0351,-7.46549 -1.54886,-13.11323 -4.95364,-18.48201 l -1.95416,-3.08138 2.66088,-10.44489 c 2.14744,-8.42949 2.80733,-12.519854 3.41991,-21.1985 l 0.75904,-10.753606 2.65625,-1.062819 c 11.19203,-4.478161 25.82905,-1.505079 35.35168,7.180655 4.63934,4.23162 10.80265,13.445196 12.53975,18.74578 1.88025,5.73736 1.74095,15.84093 -0.28972,21.01468 -3.39578,8.65176 -8.90404,13.63137 -22.29889,20.15877 -7.573,3.69037 -25.4083,10.19493 -27.9542,10.19493 -0.71512,0 -0.80538,-0.61911 -0.41102,-2.81915 z"
         id="path2993" />
      <path
         style="fill:#feffff;fill-opacity:1;fill-rule:nonzero;stroke:#000000;stroke-width:6.63331;stroke-miterlimit:4;stroke-dasharray:none;stroke-opacity:1;paint-order:stroke fill markers"
         d="m 471.70919,207.82801 c -7.58137,-2.496 -19.66114,-10.18796 -30.90479,-19.67905 -3.74014,-3.15716 -6.65712,-5.97187 -6.48218,-6.25493 0.17494,-0.28306 1.44406,-0.69505 2.82026,-0.91554 3.90467,-0.62559 12.73424,-5.20737 17.20474,-8.92776 2.32467,-1.93461 5.53483,-5.58951 7.51328,-8.55418 1.89992,-2.84699 3.50451,-5.23128 3.56576,-5.29842 0.0613,-0.0671 3.50173,-0.88742 7.6455,-1.82282 9.28635,-2.09627 17.70973,-4.9439 25.85708,-8.74133 l 6.2177,-2.89803 4.78001,4.80214 c 7.67922,7.71479 10.71966,16.40384 9.12754,26.08493 -0.89953,5.46966 -5.35091,14.80705 -9.63148,20.20334 -3.45832,4.35973 -10.50585,9.34892 -16.04815,11.36105 -5.62551,2.04234 -16.43668,2.362 -21.66527,0.6406 z"
         id="path2995" />
      <path
         style="fill:#feffff;fill-opacity:1;fill-rule:nonzero;stroke:#000000;stroke-width:6.63331;stroke-miterlimit:4;stroke-dasharray:none;stroke-opacity:1;paint-order:stroke fill markers"
         d="m 419.41309,238.85187 c -12.48539,-1.45109 -23.20957,-8.63076 -28.3117,-18.95422 -2.25014,-4.55285 -2.45832,-5.47404 -2.71798,-12.02738 -0.32596,-8.22648 0.92614,-18.86154 3.51022,-29.81502 l 1.76027,-7.46152 2.7638,2.22638 c 7.10773,5.72564 16.01584,9.00827 25.928,9.55446 l 6.58329,0.36276 7.48087,7.02803 c 5.11933,4.80945 10.53093,9.01731 17.14289,13.32967 l 9.66203,6.30164 -0.23622,3.05711 c -0.82104,10.62564 -12.09892,22.21892 -24.66055,25.35022 -4.63177,1.15458 -13.67427,1.6558 -18.90492,1.04787 z"
         id="path2997" />
    </g>
    <path
       style="fill:#feffff;fill-opacity:1;fill-rule:nonzero;stroke:#000000;stroke-width:6.63331;stroke-miterlimit:4;stroke-dasharray:none;stroke-opacity:1;paint-order:stroke fill markers"
       d="m 265.78868,113.99573 c -7.62431,-6.37874 -19.68564,-10.42845 -29.9354,-10.0511 l -5.06051,0.18631 -6.87945,-6.319545 C 216.49271,90.994723 211.31684,86.896051 205.18143,82.977943 l -3.89247,-2.485757 0.32249,-2.861134 c 0.78091,-6.928187 7.04304,-16.021423 14.20997,-20.634293 8.19145,-5.272282 22.15968,-7.53304 32.72066,-5.295837 13.22534,2.801612 24.31404,12.604167 26.83109,23.719021 0.93118,4.11191 0.18769,19.977818 -1.25453,26.771457 -1.45616,6.85932 -3.78064,14.9345 -4.28639,14.89079 -0.21739,-0.0188 -2.03699,-1.4077 -4.04357,-3.08646 z"
       id="path3192" />
  </g>
</svg>
