<?xml version="1.0" encoding="utf-8"?>
<!-- Generator: Adobe Illustrator 25.2.1, SVG Export Plug-In . SVG Version: 6.00 Build 0)  -->
<svg version="1.1" id="Layer_2_1_" xmlns="http://www.w3.org/2000/svg" xmlns:xlink="http://www.w3.org/1999/xlink" x="0px" y="0px"
	 viewBox="0 0 540.4 422" style="enable-background:new 0 0 540.4 422;" xml:space="preserve">
<style type="text/css">
	.st0{fill:#FFFFFF;}
</style>
<path class="st0" d="M264.6,407.4c23.6,8.1,47.7,12.3,72.7,9.9c28.3-2.8,53.3-13.7,76.1-29.8c35.9-25.4,61.5-59.7,83.6-96.9
	c6.1-10.1,9.3-21.8,14.6-32.3c1.8-3.8,3.8-7.5,5.1-11.5c4.2-11.7,7.2-23.7,9.8-35.7c4.5-20.2,5.7-40.6,3.2-61.2
	c-4.3-34.1-19.4-63.3-42.3-88.7c-16.2-17.9-34.8-33.1-54.4-47c-1.9-1.3-3.7-2.6-4.9-4.7c-1.9-3.2-4.7-4.3-8.3-3.5
	c-1.9,0.4-3.4,1.4-5,2.3c-27.9,16.5-56.7,31-87,42.6c-42.2,16.3-85.6,28.4-129.8,38c-6.9,1.5-13.8,3-20.7,4
	c-2.5,0.4-4.1,1.1-5.1,3.2c-2.3,4.9-5.3,9.4-8.1,13.9c-20.6,33.4-48.6,58.6-84.8,74.4c-19.7,8.6-40.4,13.4-62.2,12.2
	c-1.8-0.1-3.5,0.1-5.2,0.4c-1,0.3-1.8,0.6-2.5,1.3c-3.7,4.4-3.9,6.4-0.6,11.2c0.7,1,1.4,2,2.2,2.9c10.3,13.7,21.5,26.7,33.4,39.2
	C91,300.7,143.6,342.5,192,372C221.8,389.4,242.5,399.7,264.6,407.4z M201.2,360.7c-38.1-23-75.3-52-109.8-84.5
	c-20.4-19.3-39.6-39.7-56.7-62c-0.9-1.1-2.4-2.1-1.9-3.5c0.5-1.5,2.4-1.2,3.7-1.2c32.2-3.5,60.4-16.3,85.7-35.8
	c18-14,33.9-30,46.7-48.9c2.9-4.2,5.1-8.7,7.3-13.3c1.9-4,5-7.2,9.8-8c48.3-8.5,95.6-21.1,141.6-38.1c30.5-11.2,59.5-25.1,87.5-41.5
	c7-4.1,5.5-4.2,12.2,0.6c18,13,35,27.2,49.9,43.8c34.1,38.2,47.3,82.3,39.7,132.5c-2.4,15.5-6.3,30.5-12.7,45
	c-5,11.2-9.5,22.6-15,33.6c-20.2,40-48.3,73-85.9,97.6c-22.7,14.9-47.6,23.3-75.1,24.4c-20.1,0.8-39.5-2.5-58.7-8.6
	C246.3,385.5,224.6,374.6,201.2,360.7z"/>
</svg>
