<?xml version="1.0" encoding="utf-8"?>
<!-- Generator: Adobe Illustrator 25.2.1, SVG Export Plug-In . SVG Version: 6.00 Build 0)  -->
<svg version="1.1" id="Layer_2_1_" xmlns="http://www.w3.org/2000/svg" xmlns:xlink="http://www.w3.org/1999/xlink" x="0px" y="0px"
	 viewBox="0 0 379.6 503" style="enable-background:new 0 0 379.6 503;" xml:space="preserve">
<style type="text/css">
	.st0{fill:#FFFFFF;}
</style>
<path class="st0" d="M58,128c-18.8,16.4-34.5,35.2-44.9,58C1.4,212-1.7,239,0.8,266.9c4.1,43.8,21,83.1,42.1,120.9
	c5.7,10.3,14.2,19,20.7,28.8c2.4,3.5,4.6,7,7.4,10.2c8,9.5,16.9,18.1,26,26.4c15.2,14,32.3,25.3,51.4,33.4
	c31.7,13.3,64.5,14.9,98,7.7c23.6-5.1,46.1-13.6,67.9-23.6c2.1-1,4.1-1.9,6.5-1.9c3.7,0,6.1-1.9,7.2-5.4c0.6-1.8,0.5-3.7,0.5-5.5
	c-0.3-32.4,1.5-64.6,6.6-96.6c7-44.7,18.2-88.3,32-131.4c2.2-6.7,4.3-13.4,6.9-19.9c0.9-2.4,1.1-4.1-0.2-6
	c-3.1-4.4-5.5-9.3-8.1-13.9c-18.6-34.5-26.4-71.4-22-110.6c2.4-21.4,8.6-41.7,20.5-60c1-1.5,1.7-3.1,2.3-4.7c0.3-1,0.4-1.9,0.1-2.8
	c-2-5.4-3.6-6.6-9.4-6.1c-1.2,0.1-2.4,0.2-3.6,0.4c-17,2.1-33.9,5.3-50.7,9.3C237,31.2,174.5,55.9,124.7,83
	C95,99.9,75.6,112.8,58,128z M130,96.4c39-21.5,82.7-39.2,128.1-52.8c26.9-8,54.2-14.4,82-18.1c1.4-0.2,3-1,4,0.1
	c1.1,1.2-0.2,2.7-0.8,3.8c-13.1,29.6-16.1,60.5-11.8,92.1c3.1,22.6,9,44.4,19,64.9c2.2,4.6,5,8.7,7.9,13c2.5,3.7,3.7,7.9,2,12.5
	c-16.8,46.1-29.5,93.3-37.8,141.7c-5.6,32-8,64.1-7.8,96.5c0,8.1,0.9,6.9-6.6,10.2c-20.3,9.1-41.1,16.7-62.9,21.3
	c-50.1,10.4-94.9-0.2-134.6-31.9c-12.2-9.8-23.3-20.7-32.6-33.5c-7.2-9.9-14.8-19.5-21.6-29.8C32,349.1,17.4,308.2,15,263.3
	c-1.5-27.1,3.6-52.9,16.4-77.2c9.4-17.8,21.9-33,36.8-46.5C86.1,123.1,106.3,109.8,130,96.4z"/>
</svg>
