<svg version="1.1" id="peaks" xmlns="http://www.w3.org/2000/svg" xmlns:xlink="http://www.w3.org/1999/xlink"
		x="49.9vw" y="-.05vh" viewBox="0 0 460 486" width="12vw" height="12.1vh"
		style="enable-background:new 0 0 460 486;" xml:space="preserve">

		<style type="text/css">
			.title {
				font: 4.5vh sans-serif;
			}

			.st0 {
				fill: #010101;
			}
		</style>
		<text x="12vw" y="12vh" class="title">Peaks</text>
		<path class="st0" d="M434.9,151.7c-4.8-24.5-13.2-47.5-27.8-67.9c-16.6-23.1-38.5-39.3-63.9-51c-40-18.4-82.5-23.4-125.7-24
	c-11.8-0.2-23.5,2.8-35.3,3.5c-4.2,0.3-8.4,0.5-12.5,1.3c-12.2,2.2-24.1,5.6-35.8,9.3c-19.7,6.2-38,15.3-54.6,27.8
	c-27.4,20.8-45.1,48.4-55.7,81c-7.4,23-11.3,46.7-13.5,70.6c-0.2,2.3-0.4,4.5-1.6,6.6c-1.8,3.2-1.4,6.2,1.1,8.9
	c1.3,1.4,2.9,2.3,4.5,3.2c28.2,15.9,55.2,33.6,80.4,54c35.2,28.4,67.4,59.9,97.8,93.4c4.7,5.2,9.5,10.4,13.8,15.9c1.6,2,3,3,5.3,2.8
	c5.4-0.5,10.8-0.1,16.1,0c39.2,1.1,75,12.8,106.8,36.2c17.3,12.8,31.8,28.3,41.7,47.8c0.8,1.6,1.8,3,2.9,4.3
	c0.7,0.7,1.4,1.3,2.4,1.5c5.7,1,7.5,0.2,10-5.1c0.5-1.1,1-2.2,1.4-3.3c6.7-15.8,12.4-32,17.3-48.5c19.2-64.9,29.1-131.3,30.5-188
	C440.7,197.8,439.3,174.6,434.9,151.7z M426.2,229.9c-0.9,44.5-7.4,91.2-18.3,137.3c-6.5,27.3-14.6,54.1-25.3,80.1
	c-0.5,1.3-0.6,3.1-2.1,3.4c-1.6,0.3-2.2-1.5-2.9-2.6c-19.1-26.1-44.3-44.2-73.9-56.3c-21.1-8.6-42.9-14.4-65.7-16
	c-5.1-0.4-10.1,0-15.2,0.3c-4.4,0.3-8.7-0.7-11.8-4.5C179.5,334,144.9,299.4,107.2,268c-24.9-20.8-51.5-39-79.7-55
	c-7-4-6.4-2.7-5.6-10.8c2.3-22.1,6.1-43.9,13-65.1c16-48.6,47.6-82.1,94.9-100.6c14.6-5.7,29.6-9.8,45.3-11.5
	c12.2-1.3,24.3-3.1,36.6-3.8c44.7-2.5,87.4,5.3,127.5,25.6c24.2,12.2,44,29.6,58.7,52.8c10.7,17,17.6,35.5,21.9,55.1
	C425.1,178.5,426.5,202.7,426.2,229.9z" />

	</svg>